ply
format ascii 1.0
element vertex 60
property float x
property float y
property float z
element face 38
property list uchar int vertex_indices
end_header
4.250000 0.000000 3.500000
4.250000 0.000000 0.000000
4.041990 1.313322 3.500000
4.041990 1.313322 0.000000
3.438322 2.498087 3.500000
3.438322 2.498087 0.000000
2.498087 3.438322 3.500000
2.498087 3.438322 0.000000
1.313322 4.041990 3.500000
1.313322 4.041990 0.000000
0.000000 4.250000 3.500000
0.000000 4.250000 0.000000
-1.313322 4.041990 3.500000
-1.313322 4.041990 0.000000
-2.498087 3.438322 3.500000
-2.498087 3.438322 0.000000
-3.438322 2.498087 3.500000
-3.438322 2.498087 0.000000
-4.041990 1.313322 3.500000
-4.041990 1.313322 0.000000
-4.250000 0.000000 3.500000
-4.250000 0.000000 0.000000
-4.041990 -1.313322 3.500000
-4.041990 -1.313322 0.000000
-3.438322 -2.498087 3.500000
-3.438322 -2.498087 0.000000
-2.498087 -3.438322 3.500000
-2.498087 -3.438322 0.000000
-1.313322 -4.041990 3.500000
-1.313322 -4.041990 0.000000
-0.000000 -4.250000 3.500000
-0.000000 -4.250000 0.000000
1.313322 -4.041990 3.500000
1.313322 -4.041990 0.000000
2.498087 -3.438322 3.500000
2.498087 -3.438322 0.000000
3.438322 -2.498087 3.500000
3.438322 -2.498087 0.000000
4.041990 -1.313322 3.500000
4.041990 -1.313322 0.000000
2.500000 0.000000 -25.000000
2.377641 0.772542 -25.000000
2.022542 1.469463 -25.000000
1.469463 2.022542 -25.000000
0.772542 2.377641 -25.000000
0.000000 2.500000 -25.000000
-0.772542 2.377641 -25.000000
-1.469463 2.022542 -25.000000
-2.022542 1.469463 -25.000000
-2.377641 0.772542 -25.000000
-2.500000 0.000000 -25.000000
-2.377641 -0.772542 -25.000000
-2.022542 -1.469463 -25.000000
-1.469463 -2.022542 -25.000000
-0.772542 -2.377641 -25.000000
-0.000000 -2.500000 -25.000000
0.772542 -2.377641 -25.000000
1.469463 -2.022542 -25.000000
2.022542 -1.469463 -25.000000
2.377641 -0.772542 -25.000000
3 0 2 1
3 2 3 1
3 2 4 3
3 4 5 3
3 4 6 5
3 6 7 5
3 6 8 7
3 8 9 7
3 8 10 9
3 10 11 9
3 10 12 11
3 12 13 11
3 12 14 13
3 14 15 13
3 14 16 15
3 16 17 15
3 16 18 17
3 18 19 17
3 18 20 19
3 20 21 19
3 20 22 21
3 22 23 21
3 22 24 23
3 24 25 23
3 24 26 25
3 26 27 25
3 26 28 27
3 28 29 27
3 28 30 29
3 30 31 29
3 30 32 31
3 32 33 31
3 32 34 33
3 34 35 33
3 34 36 35
3 36 37 35
3 36 38 37
3 38 39 37
